<mxfile host="app.diagrams.net" modified="2021-04-10T15:05:59.805Z" agent="5.0 (Windows NT 10.0; Win64; x64) AppleWebKit/537.36 (KHTML, like Gecko) Chrome/89.0.4389.114 Safari/537.36" etag="2kt-iK4ge_4-g3iLXYvy" version="14.5.8" type="github">
  <diagram id="8f2JrUlGuPTvHsmJs0fN" name="Page-1">
    <mxGraphModel dx="1185" dy="635" grid="1" gridSize="10" guides="1" tooltips="1" connect="1" arrows="1" fold="1" page="1" pageScale="1" pageWidth="827" pageHeight="1169" math="0" shadow="0">
      <root>
        <mxCell id="0" />
        <mxCell id="1" parent="0" />
        <mxCell id="-jcanLdKdCl-yKt6BdGD-53" value="" style="rounded=0;whiteSpace=wrap;html=1;fillColor=#ffffff;" vertex="1" parent="1">
          <mxGeometry x="10" y="228.84000000000003" width="210" height="40" as="geometry" />
        </mxCell>
        <mxCell id="IBeI8l__l9tSu07Wctf3-1" value="supervisor - nodo" style="ellipse;whiteSpace=wrap;html=1;aspect=fixed;fillColor=#f8cecc;strokeColor=#b85450;" parent="1" vertex="1">
          <mxGeometry x="452" y="35" width="104" height="104" as="geometry" />
        </mxCell>
        <mxCell id="IBeI8l__l9tSu07Wctf3-3" value="state-server&lt;br&gt;&amp;nbsp;{[variabili], &lt;br&gt;tipo,&lt;br&gt;lamport,&lt;br&gt;RULES,&lt;br&gt;vicini,&lt;br&gt;flood state}" style="ellipse;whiteSpace=wrap;html=1;aspect=fixed;fillColor=#dae8fc;strokeColor=#6c8ebf;" parent="1" vertex="1">
          <mxGeometry x="444" y="260" width="120" height="120" as="geometry" />
        </mxCell>
        <mxCell id="IBeI8l__l9tSu07Wctf3-5" value="sup workers" style="ellipse;whiteSpace=wrap;html=1;aspect=fixed;fillColor=#f8cecc;strokeColor=#b85450;" parent="1" vertex="1">
          <mxGeometry x="670" y="133.84" width="110" height="110" as="geometry" />
        </mxCell>
        <mxCell id="IBeI8l__l9tSu07Wctf3-8" value="COMM&lt;br&gt;IN" style="ellipse;whiteSpace=wrap;html=1;aspect=fixed;fillColor=#d5e8d4;strokeColor=#82b366;" parent="1" vertex="1">
          <mxGeometry x="860" y="290.00000000000006" width="80" height="80" as="geometry" />
        </mxCell>
        <mxCell id="IBeI8l__l9tSu07Wctf3-12" value="RULES WORKER" style="ellipse;whiteSpace=wrap;html=1;aspect=fixed;fillColor=#d5e8d4;strokeColor=#82b366;" parent="1" vertex="1">
          <mxGeometry x="670" y="308.84000000000003" width="110" height="110" as="geometry" />
        </mxCell>
        <mxCell id="IBeI8l__l9tSu07Wctf3-23" value="SUP che mantiene vivi tutti" style="text;html=1;strokeColor=none;fillColor=none;align=center;verticalAlign=middle;whiteSpace=wrap;rounded=0;" parent="1" vertex="1">
          <mxGeometry x="540" y="10" width="100" height="50" as="geometry" />
        </mxCell>
        <mxCell id="IBeI8l__l9tSu07Wctf3-24" value="SUP che tiene vivi i worker" style="text;html=1;strokeColor=none;fillColor=none;align=center;verticalAlign=middle;whiteSpace=wrap;rounded=0;" parent="1" vertex="1">
          <mxGeometry x="727" y="100.00000000000006" width="100" height="30" as="geometry" />
        </mxCell>
        <mxCell id="IBeI8l__l9tSu07Wctf3-25" value="ENVIRONMENT" style="ellipse;whiteSpace=wrap;html=1;aspect=fixed;fillColor=#ffe6cc;strokeColor=#d79b00;" parent="1" vertex="1">
          <mxGeometry width="174" height="174" as="geometry" />
        </mxCell>
        <mxCell id="IBeI8l__l9tSu07Wctf3-32" value="" style="endArrow=none;dashed=1;html=1;dashPattern=1 3;strokeWidth=2;entryX=1;entryY=1;entryDx=0;entryDy=0;" parent="1" source="-jcanLdKdCl-yKt6BdGD-3" target="IBeI8l__l9tSu07Wctf3-25" edge="1">
          <mxGeometry width="50" height="50" relative="1" as="geometry">
            <mxPoint x="680" y="146" as="sourcePoint" />
            <mxPoint x="307.0000000000002" y="20" as="targetPoint" />
          </mxGeometry>
        </mxCell>
        <mxCell id="IBeI8l__l9tSu07Wctf3-35" value="" style="endArrow=classic;html=1;entryX=0;entryY=0.5;entryDx=0;entryDy=0;exitX=1;exitY=0.5;exitDx=0;exitDy=0;" parent="1" source="IBeI8l__l9tSu07Wctf3-25" target="IBeI8l__l9tSu07Wctf3-1" edge="1">
          <mxGeometry relative="1" as="geometry">
            <mxPoint x="220" y="40" as="sourcePoint" />
            <mxPoint x="540" y="280" as="targetPoint" />
          </mxGeometry>
        </mxCell>
        <mxCell id="IBeI8l__l9tSu07Wctf3-36" value="SPAWN" style="edgeLabel;resizable=0;html=1;align=center;verticalAlign=middle;" parent="IBeI8l__l9tSu07Wctf3-35" connectable="0" vertex="1">
          <mxGeometry relative="1" as="geometry" />
        </mxCell>
        <mxCell id="CnOm33l_RqHOCfw_i5Eg-1" value="isAlive&lt;br&gt;newConnect" style="ellipse;whiteSpace=wrap;html=1;aspect=fixed;fillColor=#d5e8d4;strokeColor=#82b366;" parent="1" vertex="1">
          <mxGeometry x="940" y="148.84" width="80" height="80" as="geometry" />
        </mxCell>
        <mxCell id="CnOm33l_RqHOCfw_i5Eg-6" value="Aggiunta nuovo vicino e controllo vita" style="text;html=1;strokeColor=none;fillColor=none;align=center;verticalAlign=middle;whiteSpace=wrap;rounded=0;" parent="1" vertex="1">
          <mxGeometry x="935" y="110.00000000000006" width="90" height="20" as="geometry" />
        </mxCell>
        <mxCell id="-jcanLdKdCl-yKt6BdGD-3" value="comm.&lt;br&gt;env." style="ellipse;whiteSpace=wrap;html=1;aspect=fixed;fillColor=#e1d5e7;strokeColor=#9673a6;" vertex="1" parent="1">
          <mxGeometry x="300" y="200.00000000000003" width="80" height="80" as="geometry" />
        </mxCell>
        <mxCell id="-jcanLdKdCl-yKt6BdGD-7" value="" style="endArrow=classic;html=1;entryX=1;entryY=0;entryDx=0;entryDy=0;exitX=0;exitY=1;exitDx=0;exitDy=0;" edge="1" parent="1" source="IBeI8l__l9tSu07Wctf3-1" target="-jcanLdKdCl-yKt6BdGD-3">
          <mxGeometry width="50" height="50" relative="1" as="geometry">
            <mxPoint x="538" y="124" as="sourcePoint" />
            <mxPoint x="600" y="243.84000000000006" as="targetPoint" />
          </mxGeometry>
        </mxCell>
        <mxCell id="-jcanLdKdCl-yKt6BdGD-8" value="COMM&lt;br&gt;OUT" style="ellipse;whiteSpace=wrap;html=1;aspect=fixed;dashed=1;fillColor=#fff2cc;strokeColor=#d6b656;" vertex="1" parent="1">
          <mxGeometry x="800" y="430.00000000000006" width="80" height="80" as="geometry" />
        </mxCell>
        <mxCell id="-jcanLdKdCl-yKt6BdGD-12" value="" style="endArrow=classic;html=1;exitX=0.5;exitY=1;exitDx=0;exitDy=0;" edge="1" parent="1" source="IBeI8l__l9tSu07Wctf3-1" target="IBeI8l__l9tSu07Wctf3-3">
          <mxGeometry relative="1" as="geometry">
            <mxPoint x="186.53999999999908" y="249.24" as="sourcePoint" />
            <mxPoint x="403.9960000000001" y="363.84000000000003" as="targetPoint" />
          </mxGeometry>
        </mxCell>
        <mxCell id="-jcanLdKdCl-yKt6BdGD-13" value="SPAWN" style="edgeLabel;resizable=0;html=1;align=center;verticalAlign=middle;" connectable="0" vertex="1" parent="-jcanLdKdCl-yKt6BdGD-12">
          <mxGeometry relative="1" as="geometry" />
        </mxCell>
        <mxCell id="-jcanLdKdCl-yKt6BdGD-14" value="" style="endArrow=classic;html=1;entryX=0;entryY=0;entryDx=0;entryDy=0;exitX=1;exitY=0.5;exitDx=0;exitDy=0;" edge="1" parent="1" source="IBeI8l__l9tSu07Wctf3-1" target="IBeI8l__l9tSu07Wctf3-5">
          <mxGeometry relative="1" as="geometry">
            <mxPoint x="640" y="87" as="sourcePoint" />
            <mxPoint x="561.4560000000001" y="125.44000000000005" as="targetPoint" />
          </mxGeometry>
        </mxCell>
        <mxCell id="-jcanLdKdCl-yKt6BdGD-15" value="SPAWN" style="edgeLabel;resizable=0;html=1;align=center;verticalAlign=middle;" connectable="0" vertex="1" parent="-jcanLdKdCl-yKt6BdGD-14">
          <mxGeometry relative="1" as="geometry" />
        </mxCell>
        <mxCell id="-jcanLdKdCl-yKt6BdGD-16" value="" style="endArrow=classic;html=1;entryX=0.5;entryY=0;entryDx=0;entryDy=0;exitX=0.5;exitY=1;exitDx=0;exitDy=0;" edge="1" parent="1" source="IBeI8l__l9tSu07Wctf3-5" target="IBeI8l__l9tSu07Wctf3-12">
          <mxGeometry relative="1" as="geometry">
            <mxPoint x="483.9999999999991" y="20.840000000000003" as="sourcePoint" />
            <mxPoint x="701.4560000000001" y="135.44000000000005" as="targetPoint" />
          </mxGeometry>
        </mxCell>
        <mxCell id="-jcanLdKdCl-yKt6BdGD-17" value="SPAWN" style="edgeLabel;resizable=0;html=1;align=center;verticalAlign=middle;" connectable="0" vertex="1" parent="-jcanLdKdCl-yKt6BdGD-16">
          <mxGeometry relative="1" as="geometry" />
        </mxCell>
        <mxCell id="-jcanLdKdCl-yKt6BdGD-18" value="" style="endArrow=classic;html=1;entryX=0;entryY=0;entryDx=0;entryDy=0;exitX=1;exitY=1;exitDx=0;exitDy=0;" edge="1" parent="1" source="IBeI8l__l9tSu07Wctf3-5" target="IBeI8l__l9tSu07Wctf3-8">
          <mxGeometry relative="1" as="geometry">
            <mxPoint x="493.9999999999991" y="30.840000000000003" as="sourcePoint" />
            <mxPoint x="711.4560000000001" y="145.44000000000005" as="targetPoint" />
          </mxGeometry>
        </mxCell>
        <mxCell id="-jcanLdKdCl-yKt6BdGD-19" value="SPAWN" style="edgeLabel;resizable=0;html=1;align=center;verticalAlign=middle;" connectable="0" vertex="1" parent="-jcanLdKdCl-yKt6BdGD-18">
          <mxGeometry relative="1" as="geometry" />
        </mxCell>
        <mxCell id="-jcanLdKdCl-yKt6BdGD-20" value="" style="endArrow=classic;html=1;entryX=0;entryY=0.5;entryDx=0;entryDy=0;exitX=1;exitY=0.5;exitDx=0;exitDy=0;" edge="1" parent="1" source="IBeI8l__l9tSu07Wctf3-5" target="CnOm33l_RqHOCfw_i5Eg-1">
          <mxGeometry relative="1" as="geometry">
            <mxPoint x="503.9999999999991" y="40.84" as="sourcePoint" />
            <mxPoint x="721.4560000000001" y="155.44000000000005" as="targetPoint" />
          </mxGeometry>
        </mxCell>
        <mxCell id="-jcanLdKdCl-yKt6BdGD-21" value="SPAWN" style="edgeLabel;resizable=0;html=1;align=center;verticalAlign=middle;" connectable="0" vertex="1" parent="-jcanLdKdCl-yKt6BdGD-20">
          <mxGeometry relative="1" as="geometry" />
        </mxCell>
        <mxCell id="-jcanLdKdCl-yKt6BdGD-30" value="" style="endArrow=none;dashed=1;html=1;dashPattern=1 3;strokeWidth=2;entryX=0.5;entryY=1;entryDx=0;entryDy=0;exitX=0;exitY=0.5;exitDx=0;exitDy=0;rounded=0;" edge="1" parent="1" source="-jcanLdKdCl-yKt6BdGD-8" target="IBeI8l__l9tSu07Wctf3-3">
          <mxGeometry width="50" height="50" relative="1" as="geometry">
            <mxPoint x="360" y="428.84000000000003" as="sourcePoint" />
            <mxPoint x="410" y="378.84000000000003" as="targetPoint" />
            <Array as="points">
              <mxPoint x="630" y="470" />
              <mxPoint x="504" y="470" />
              <mxPoint x="504" y="440" />
            </Array>
          </mxGeometry>
        </mxCell>
        <mxCell id="-jcanLdKdCl-yKt6BdGD-31" value="" style="endArrow=none;dashed=1;html=1;dashPattern=1 3;strokeWidth=2;entryX=0.5;entryY=1;entryDx=0;entryDy=0;exitX=0;exitY=1;exitDx=0;exitDy=0;rounded=0;" edge="1" parent="1" source="IBeI8l__l9tSu07Wctf3-3" target="CnOm33l_RqHOCfw_i5Eg-1">
          <mxGeometry width="50" height="50" relative="1" as="geometry">
            <mxPoint x="800" y="353.84000000000003" as="sourcePoint" />
            <mxPoint x="850" y="303.84000000000003" as="targetPoint" />
            <Array as="points">
              <mxPoint x="462" y="530" />
              <mxPoint x="980" y="530" />
            </Array>
          </mxGeometry>
        </mxCell>
        <mxCell id="-jcanLdKdCl-yKt6BdGD-32" value="" style="endArrow=none;dashed=1;html=1;dashPattern=1 3;strokeWidth=2;entryX=1;entryY=0.5;entryDx=0;entryDy=0;exitX=0;exitY=0.5;exitDx=0;exitDy=0;rounded=0;" edge="1" parent="1" source="IBeI8l__l9tSu07Wctf3-12" target="IBeI8l__l9tSu07Wctf3-3">
          <mxGeometry width="50" height="50" relative="1" as="geometry">
            <mxPoint x="390" y="443.84000000000003" as="sourcePoint" />
            <mxPoint x="440" y="393.84000000000003" as="targetPoint" />
            <Array as="points">
              <mxPoint x="600" y="364" />
              <mxPoint x="600" y="320" />
            </Array>
          </mxGeometry>
        </mxCell>
        <mxCell id="-jcanLdKdCl-yKt6BdGD-35" value="" style="endArrow=none;dashed=1;html=1;dashPattern=1 3;strokeWidth=2;entryX=1;entryY=0.5;entryDx=0;entryDy=0;exitX=0;exitY=0;exitDx=0;exitDy=0;rounded=0;orthogonal=1;" edge="1" parent="1" source="IBeI8l__l9tSu07Wctf3-12" target="-jcanLdKdCl-yKt6BdGD-3">
          <mxGeometry width="50" height="50" relative="1" as="geometry">
            <mxPoint x="360" y="302.90999999999997" as="sourcePoint" />
            <mxPoint x="478.2842712474619" y="211.19427124746198" as="targetPoint" />
            <Array as="points">
              <mxPoint x="640" y="325" />
              <mxPoint x="640" y="240" />
            </Array>
          </mxGeometry>
        </mxCell>
        <mxCell id="-jcanLdKdCl-yKt6BdGD-39" value="" style="endArrow=classic;html=1;entryX=0;entryY=0;entryDx=0;entryDy=0;exitX=1;exitY=1;exitDx=0;exitDy=0;" edge="1" parent="1" source="IBeI8l__l9tSu07Wctf3-12" target="-jcanLdKdCl-yKt6BdGD-8">
          <mxGeometry relative="1" as="geometry">
            <mxPoint x="820" y="290" as="sourcePoint" />
            <mxPoint x="820" y="355" as="targetPoint" />
          </mxGeometry>
        </mxCell>
        <mxCell id="-jcanLdKdCl-yKt6BdGD-40" value="SPAWN" style="edgeLabel;resizable=0;html=1;align=center;verticalAlign=middle;" connectable="0" vertex="1" parent="-jcanLdKdCl-yKt6BdGD-39">
          <mxGeometry relative="1" as="geometry" />
        </mxCell>
        <mxCell id="-jcanLdKdCl-yKt6BdGD-45" value="" style="endArrow=none;dashed=1;html=1;dashPattern=1 3;strokeWidth=2;entryX=0;entryY=0.5;entryDx=0;entryDy=0;exitX=1;exitY=0.5;exitDx=0;exitDy=0;rounded=0;" edge="1" parent="1" source="IBeI8l__l9tSu07Wctf3-12" target="IBeI8l__l9tSu07Wctf3-8">
          <mxGeometry width="50" height="50" relative="1" as="geometry">
            <mxPoint x="540" y="420" as="sourcePoint" />
            <mxPoint x="590" y="370" as="targetPoint" />
            <Array as="points">
              <mxPoint x="810" y="364" />
              <mxPoint x="810" y="330" />
            </Array>
          </mxGeometry>
        </mxCell>
        <mxCell id="-jcanLdKdCl-yKt6BdGD-46" value="" style="endArrow=none;dashed=1;html=1;dashPattern=1 3;strokeWidth=2;entryX=0.5;entryY=1;entryDx=0;entryDy=0;exitX=0;exitY=0.5;exitDx=0;exitDy=0;rounded=0;" edge="1" parent="1" source="IBeI8l__l9tSu07Wctf3-3" target="-jcanLdKdCl-yKt6BdGD-3">
          <mxGeometry width="50" height="50" relative="1" as="geometry">
            <mxPoint x="240" y="418.84" as="sourcePoint" />
            <mxPoint x="290" y="368.84" as="targetPoint" />
            <Array as="points">
              <mxPoint x="340" y="320" />
            </Array>
          </mxGeometry>
        </mxCell>
        <mxCell id="-jcanLdKdCl-yKt6BdGD-47" value="" style="endArrow=none;dashed=1;html=1;dashPattern=1 3;strokeWidth=2;" edge="1" parent="1">
          <mxGeometry width="50" height="50" relative="1" as="geometry">
            <mxPoint x="110" y="239.05000000000007" as="sourcePoint" />
            <mxPoint x="210" y="238.6300000000001" as="targetPoint" />
          </mxGeometry>
        </mxCell>
        <mxCell id="-jcanLdKdCl-yKt6BdGD-48" value="Comunicazione" style="text;html=1;strokeColor=none;fillColor=none;align=center;verticalAlign=middle;whiteSpace=wrap;rounded=0;dashed=1;" vertex="1" parent="1">
          <mxGeometry x="13" y="228.84000000000003" width="90" height="20" as="geometry" />
        </mxCell>
        <mxCell id="-jcanLdKdCl-yKt6BdGD-50" value="" style="endArrow=classic;html=1;" edge="1" parent="1">
          <mxGeometry relative="1" as="geometry">
            <mxPoint x="110" y="258.6700000000001" as="sourcePoint" />
            <mxPoint x="210" y="258.84000000000003" as="targetPoint" />
          </mxGeometry>
        </mxCell>
        <mxCell id="-jcanLdKdCl-yKt6BdGD-51" value="SPAWN" style="edgeLabel;resizable=0;html=1;align=center;verticalAlign=middle;" connectable="0" vertex="1" parent="-jcanLdKdCl-yKt6BdGD-50">
          <mxGeometry relative="1" as="geometry" />
        </mxCell>
        <mxCell id="-jcanLdKdCl-yKt6BdGD-52" value="Creazione" style="text;html=1;strokeColor=none;fillColor=none;align=center;verticalAlign=middle;whiteSpace=wrap;rounded=0;dashed=1;" vertex="1" parent="1">
          <mxGeometry x="13" y="248.84000000000003" width="68" height="20" as="geometry" />
        </mxCell>
      </root>
    </mxGraphModel>
  </diagram>
</mxfile>
